<svg id="レイヤー_1" data-name="レイヤー 1" xmlns="http://www.w3.org/2000/svg" viewBox="0 0 909.24 211.43">
    <path d="M268.17,200.47q-23.12,24.85-42.09,24.86-11.55,0-17.59-11.14t-6-29.82q0-14.43,5.93-39.71t15.32-42.5l6-10.73a119.2,119.2,0,0,0-20.12,28q-7.83,15.21-18.72,42.55T174.4,199.23a113.27,113.27,0,0,1-10.68,16.14q-5.1,6.24-9.08,8.1t-13.87,1.86c-2.54,0-3.82-.69-3.82-2.07q0-.19,1.37-6.5a201.69,201.69,0,0,0,2.78-20.16q1.43-13.87,2-47.14t9.7-57q-9.71,11-19.83,51.37l-2.58,10.1q-10.64,42-24.37,56.69t-26.95,14.7a21.78,21.78,0,0,1-14.36-5.16q-6.2-5.16-6.19-11.86,0-5.16,7.44-11.56t9.38-6.39a2.94,2.94,0,0,1,3,1.54c.49,1,1.11,3.87,1.87,8.52s1.91,7.66,3.46,9.07a8.37,8.37,0,0,0,5.85,2.12q8,0,17.58-15.94t17.58-49.26l3-12.48a194,194,0,0,1,7.13-24.34,103.85,103.85,0,0,1,9.31-18.16q8.39-13,10.29-13.87a26.34,26.34,0,0,1,7.17-1.44,97.44,97.44,0,0,1,10.52-.57c1.37,0,2.06.79,2.06,2.37a32.32,32.32,0,0,1-.64,4.64,196.84,196.84,0,0,0-1.94,29l.21,27.64q.21,36.1-5.78,58.29,5.47-6.6,15.89-34,15.06-38.88,27.44-58.38a110,110,0,0,1,14.18-18q8.31-8.61,11.5-9.23a102.18,102.18,0,0,1,18.47-2.07c1.85,0,2.78.52,2.78,1.55q0,2.17-3.39,9.7-8,18.16-15,49.11t-7,49.3q0,20.73,12.68,20.73,10.32,0,24.56-17.54Z" transform="translate(-48.09 -64.85)" style="fill:#940008" />
    <path d="M378.23,200.47q-16.5,15.67-23.62,20.42T341,225.64q-16.31,0-15.37-28.78-10.32,14.74-19,21.76t-18,7q-9.07,0-15.42-8.51t-6.35-20.89a56,56,0,0,1,8.51-29.5A70,70,0,0,1,297.15,144q13.31-8.65,23.52-8.66,12.9,0,18.05,11.86l21.09-11.66h5.78l-9.09,30.23q-7,22.8-7,31.26,0,8.87,6.29,8.86,4,0,8.87-4.28t13.61-13.05Zm-75.51,5.67q10.32,0,19.45-17.59t9.13-32.44c0-3.85-.87-6.86-2.58-9a8.39,8.39,0,0,0-6.91-3.24q-10.32,0-19.55,17.53T293,193.66a14.16,14.16,0,0,0,2.73,9A8.5,8.5,0,0,0,302.72,206.14Z" transform="translate(-48.09 -64.85)" style="fill:#940008" />
    <path d="M479.42,200.47a79.58,79.58,0,0,1-31.34,20.21q-8.56,26.72-21.72,41.16t-27.91,14.44q-8,0-13-5t-4.95-13.31q0-11,9.85-19.8t33.47-16.92l4.44-20.32q-9.9,11.15-17.12,16.35t-14.55,5.21q-8.56,0-14-8.05t-5.46-20.94q0-21,16-39.45t34.08-18.42q10,0,17.74,8.46,4.64-1.65,12.06-4.95l7.32-3.3h2.38a182.76,182.76,0,0,0-6.18,23.72l-9.67,51.68q13.92-5.25,28.56-22.59Zm-57.76,29.81q-33.33,12-33.32,27.64a10.61,10.61,0,0,0,2.78,7.59,9.37,9.37,0,0,0,7.12,2.93q7.42,0,12.9-9.38T421.66,230.28ZM413,203.87q7.33,0,13-8.66t8.82-22q3.15-13.3,3.15-18.46a12.67,12.67,0,0,0-2.43-8,7.34,7.34,0,0,0-6-3.15q-10.94,0-19.09,14.75a61.47,61.47,0,0,0-8.14,30q0,7.11,2.93,11.29A9.09,9.09,0,0,0,413,203.87Z" transform="translate(-48.09 -64.85)" style="fill:#940008" />
    <path d="M530.07,200.47q-24.14,25.36-36.1,25.37-6.6,0-11.14-6.75t-4.54-17q0-22,14.85-60.86l26.2-5.47h1.24l-10.31,32.29q-6.4,20-6.4,28.57a9.34,9.34,0,0,0,1.5,5.52,4.45,4.45,0,0,0,3.76,2.11,13.83,13.83,0,0,0,8.1-2.94q4.08-2.94,12.84-12.74ZM528,95.46q0,24.75-18.26,24.75a22.56,22.56,0,0,1-15.16-5.36,75,75,0,0,0,9.28-20.43Q512,99.49,517,99.48A18.53,18.53,0,0,0,528,95.46Z" transform="translate(-48.09 -64.85)" style="fill:#940008" />
    <path d="M607.23,200.47q-13.2,13-24.19,19.08a46.67,46.67,0,0,1-22.95,6.09q-13.41,0-22.13-8.72t-8.71-22.13q0-22,16-40.59T580,135.58q9.18,0,15,5.11a16.85,16.85,0,0,1,5.77,13.25,7.23,7.23,0,0,1-1.08,4.34,11.29,11.29,0,0,1-4.07,2.89l-12,5.67a8.53,8.53,0,0,1-3.2,1c-1,0-1.44-.69-1.44-2.06,0-.55.2-2.36.62-5.42s.62-4.93.62-5.62a12.7,12.7,0,0,0-1.91-7.32,5.92,5.92,0,0,0-5.11-2.79q-7.53,0-13.77,11.14a51.06,51.06,0,0,0-6.24,25.38q0,12.27,5.88,19.6a19.08,19.08,0,0,0,15.68,7.32,28.34,28.34,0,0,0,15.73-4.8q7.37-4.78,16.76-14.7Z" transform="translate(-48.09 -64.85)" style="fill:#940008" />
    <path d="M709.39,153.33q7.43-9,14-13.26a26.37,26.37,0,0,1,14.64-4.28,20.91,20.91,0,0,1,17,8q6.56,8,6.55,21,0,22.78-15.74,41.82t-34.2,19a23.55,23.55,0,0,1-8.15-1.14q-3-1.14-7.84-5.26-7.43,32.7-9.58,52.4l-26.2,4.64q7.32-48.27,18.67-97.79-13.62,17.85-18.36,22h-2.37v-9.29q19.59-21.13,32.28-51.37l23.32-4.23Zm-11.93,55.18q5.37,8.88,11.87,8.87,10.42,0,18.43-15.83t8-30.89q0-7.95-3.25-12.85t-8.4-4.9q-4,0-8.46,3.62a24,24,0,0,0-6.7,8.4q-2.26,4.8-5.15,16.77Z" transform="translate(-48.09 -64.85)" style="fill:#940008" />
    <path d="M889.15,200.47q-16.5,15.67-23.62,20.42t-13.62,4.75q-16.3,0-15.37-28.78-10.32,14.74-19,21.76t-18,7q-9.07,0-15.42-8.51t-6.35-20.89a56,56,0,0,1,8.51-29.5A70,70,0,0,1,808.07,144q13.3-8.65,23.52-8.66,12.9,0,18,11.86l21.09-11.66h5.78l-9.09,30.23q-7,22.8-7,31.26,0,8.87,6.29,8.86,4,0,8.87-4.28t13.61-13.05Zm-75.51,5.67q10.32,0,19.45-17.59t9.13-32.44c0-3.85-.87-6.86-2.58-9a8.39,8.39,0,0,0-6.91-3.24q-10.32,0-19.55,17.53T804,193.66a14.16,14.16,0,0,0,2.73,9A8.5,8.5,0,0,0,813.64,206.14Z" transform="translate(-48.09 -64.85)" style="fill:#940008" />
    <path d="M957.33,200.47q-14,12.89-24.6,19t-20.16,6.14a21.58,21.58,0,0,1-17.8-8.57q-6.75-8.55-6.75-23,0-21.66,9.38-52a331.2,331.2,0,0,1,22.8-55.91l26.2-9.69a6.45,6.45,0,0,1,1.86-.42c2,0,3.62,1.47,4.9,4.39s1.91,6.86,1.91,11.81a91.25,91.25,0,0,1-9.7,40.74q-9.71,19.71-30.33,42.09-.82,10.72-.82,14.75,0,9,3.3,14.24t8.77,5.26q5.57,0,11.86-4t19.18-16.71Zm-39.5-40.34a126.1,126.1,0,0,0,21.25-32.64q8.14-18.08,8.15-31.09a14.06,14.06,0,0,0-1.14-6.15c-.76-1.55-1.72-2.32-2.89-2.32q-3.81,0-11.09,19T917.83,160.13Z" transform="translate(-48.09 -64.85)" style="fill:#940008" />
    <path d="M261.2,195.92q-23.1,24.86-42.08,24.86-11.56,0-17.59-11.14t-6-29.81q0-14.45,5.94-39.72t15.31-42.5l6-10.72a118.94,118.94,0,0,0-20.12,28q-7.85,15.23-18.72,42.55t-16.45,37.24a115.77,115.77,0,0,1-10.68,16.15q-5.1,6.24-9.08,8.09t-13.87,1.86c-2.55,0-3.82-.69-3.82-2.06q0-.21,1.37-6.5a202.45,202.45,0,0,0,2.78-20.17q1.43-13.87,2-47.14t9.7-57q-9.72,11-19.83,51.37l-2.58,10.11q-10.64,42-24.37,56.68t-27,14.7a21.75,21.75,0,0,1-14.35-5.16q-6.19-5.16-6.2-11.86,0-5.16,7.44-11.55t9.39-6.4a3,3,0,0,1,3,1.55q.72,1.54,1.86,8.51T76.73,205a8.35,8.35,0,0,0,5.84,2.11q8,0,17.59-15.94t17.58-49.25l3-12.49A193.81,193.81,0,0,1,127.88,105a102.74,102.74,0,0,1,9.31-18.15q8.37-13,10.29-13.88a26.74,26.74,0,0,1,7.16-1.44A97.76,97.76,0,0,1,165.17,71c1.37,0,2.06.79,2.06,2.37a32.87,32.87,0,0,1-.65,4.64,198.21,198.21,0,0,0-1.93,29l.21,27.65q.19,36.1-5.78,58.28,5.46-6.6,15.89-34Q190,120,202.41,100.5a109.5,109.5,0,0,1,14.18-18q8.29-8.61,11.5-9.23a102,102,0,0,1,18.46-2.06c1.86,0,2.79.51,2.79,1.54q0,2.18-3.39,9.7-8,18.17-15,49.11t-7,49.3q0,20.73,12.69,20.73,10.32,0,24.55-17.53Z" transform="translate(-48.09 -64.85)" style="fill:#c90099;stroke:#fff;stroke-miterlimit:10;stroke-width:7px" />
    <path d="M371.27,195.92q-16.51,15.68-23.62,20.42T334,221.09q-16.3,0-15.37-28.78-10.32,14.74-19,21.76t-18,7q-9.09,0-15.42-8.51t-6.35-20.89a56,56,0,0,1,8.51-29.5,70.12,70.12,0,0,1,21.82-22.7q13.31-8.66,23.52-8.66,12.89,0,18.05,11.86L352.84,131h5.79l-9.1,30.22q-7,22.8-7,31.26,0,8.86,6.29,8.87,4,0,8.87-4.28t13.61-13.05Zm-75.51,5.67q10.31,0,19.44-17.58t9.13-32.45q0-5.77-2.58-9a8.36,8.36,0,0,0-6.91-3.25q-10.32,0-19.55,17.53t-9.23,32.29a14.11,14.11,0,0,0,2.74,9A8.5,8.5,0,0,0,295.76,201.59Z" transform="translate(-48.09 -64.85)" style="fill:#c90099;stroke:#fff;stroke-miterlimit:10;stroke-width:7px" />
    <path d="M472.46,195.92a79.65,79.65,0,0,1-31.34,20.21q-8.56,26.72-21.72,41.16t-27.91,14.45q-8.06,0-13-5.06t-4.95-13.3q0-11,9.85-19.81t33.47-16.92l4.44-20.32q-9.9,11.14-17.13,16.35t-14.54,5.21q-8.56,0-14-8t-5.47-20.94q0-21,16-39.45T420.25,131q10,0,17.74,8.45,4.63-1.65,12.06-5l7.32-3.3h2.37A184.86,184.86,0,0,0,453.57,155l-9.67,51.68q13.92-5.27,28.56-22.59ZM414.7,225.73q-33.33,12-33.32,27.65a10.56,10.56,0,0,0,2.78,7.58,9.38,9.38,0,0,0,7.12,2.94q7.43,0,12.89-9.39T414.7,225.73ZM406,199.32q7.32,0,13-8.66t8.82-22Q431,155.39,431,150.22a12.75,12.75,0,0,0-2.42-8,7.36,7.36,0,0,0-6-3.15q-10.93,0-19.08,14.75a61.48,61.48,0,0,0-8.15,30q0,7.11,2.94,11.3A9.1,9.1,0,0,0,406,199.32Z" transform="translate(-48.09 -64.85)" style="fill:#c90099;stroke:#fff;stroke-miterlimit:10;stroke-width:7px" />
    <path d="M523.11,195.92Q499,221.3,487,221.29q-6.61,0-11.14-6.75t-4.54-17q0-22,14.85-60.86l26.2-5.47h1.24L503.3,163.53q-6.39,20-6.39,28.57a9.41,9.41,0,0,0,1.49,5.52,4.49,4.49,0,0,0,3.77,2.12,13.83,13.83,0,0,0,8.1-2.94q4.07-2.94,12.84-12.74Zm-2.06-105q0,24.75-18.26,24.76a22.59,22.59,0,0,1-15.17-5.37,74.8,74.8,0,0,0,9.29-20.42q8.14,5.06,13.1,5.05A18.55,18.55,0,0,0,521.05,90.91Z" transform="translate(-48.09 -64.85)" style="fill:#c90099;stroke:#fff;stroke-miterlimit:10;stroke-width:7px" />
    <path d="M600.27,195.92q-13.21,13-24.19,19.08a46.7,46.7,0,0,1-23,6.09q-13.41,0-22.13-8.72t-8.72-22.12q0-22,16-40.6T573,131q9.18,0,15,5.1a16.89,16.89,0,0,1,5.78,13.26,7.2,7.2,0,0,1-1.08,4.33,11.22,11.22,0,0,1-4.08,2.89l-12,5.67a8.64,8.64,0,0,1-3.2,1c-1,0-1.45-.68-1.45-2.06q0-.82.62-5.42c.42-3.06.62-4.93.62-5.62a12.65,12.65,0,0,0-1.91-7.32,5.89,5.89,0,0,0-5.1-2.79q-7.53,0-13.77,11.14a51.06,51.06,0,0,0-6.24,25.38q0,12.27,5.88,19.6a19.08,19.08,0,0,0,15.68,7.32,28.41,28.41,0,0,0,15.73-4.79q7.37-4.8,16.76-14.7Z" transform="translate(-48.09 -64.85)" style="fill:#c90099;stroke:#fff;stroke-miterlimit:10;stroke-width:7px" />
    <path d="M702.43,148.79q7.43-9,14-13.27a26.31,26.31,0,0,1,14.63-4.28,20.91,20.91,0,0,1,17,8q6.54,8,6.55,21,0,22.8-15.74,41.83t-34.2,19A23.51,23.51,0,0,1,696.5,220q-3-1.14-7.84-5.26-7.42,32.7-9.59,52.41l-26.19,4.64q7.32-48.28,18.67-97.79-13.62,17.85-18.36,22h-2.38v-9.29q19.61-21.13,32.29-51.37L706.42,131ZM690.5,204q5.37,8.88,11.87,8.88,10.43,0,18.43-15.84t8-30.89q0-8-3.25-12.84t-8.4-4.9c-2.69,0-5.5,1.2-8.46,3.61a24,24,0,0,0-6.7,8.4q-2.26,4.8-5.16,16.77Z" transform="translate(-48.09 -64.85)" style="fill:#c90099;stroke:#fff;stroke-miterlimit:10;stroke-width:7px" />
    <path d="M882.19,195.92q-16.52,15.68-23.62,20.42T845,221.09q-16.31,0-15.37-28.78-10.32,14.74-19,21.76t-18,7q-9.09,0-15.42-8.51t-6.35-20.89a56,56,0,0,1,8.51-29.5,70.12,70.12,0,0,1,21.82-22.7q13.3-8.66,23.52-8.66,12.89,0,18,11.86L863.76,131h5.79l-9.1,30.22q-7,22.8-7,31.26,0,8.86,6.29,8.87,4,0,8.87-4.28t13.61-13.05Zm-75.51,5.67q10.3,0,19.44-17.58t9.13-32.45q0-5.77-2.58-9a8.36,8.36,0,0,0-6.91-3.25q-10.32,0-19.55,17.53T797,189.11a14.11,14.11,0,0,0,2.74,9A8.5,8.5,0,0,0,806.68,201.59Z" transform="translate(-48.09 -64.85)" style="fill:#c90099;stroke:#fff;stroke-miterlimit:10;stroke-width:7px" />
    <path d="M950.37,195.92q-14,12.9-24.6,19t-20.17,6.14a21.54,21.54,0,0,1-17.79-8.56q-6.76-8.57-6.76-23,0-21.66,9.39-52a331.54,331.54,0,0,1,22.8-55.91l26.2-9.69a6.3,6.3,0,0,1,1.85-.41q3,0,4.9,4.38t1.91,11.81a91.31,91.31,0,0,1-9.69,40.75q-9.7,19.69-30.33,42.08-.83,10.74-.83,14.75,0,9,3.3,14.24t8.77,5.26q5.58,0,11.87-4t19.18-16.71Zm-39.51-40.33a125.48,125.48,0,0,0,21.25-32.65q8.16-18.07,8.15-31.09a14.22,14.22,0,0,0-1.13-6.15c-.76-1.55-1.72-2.32-2.89-2.32q-3.82,0-11.09,19T910.86,155.59Z" transform="translate(-48.09 -64.85)" style="fill:#c90099;stroke:#fff;stroke-miterlimit:10;stroke-width:7px" />
</svg>
